<mxfile host="Electron" modified="2024-05-19T20:12:30.974Z" agent="Mozilla/5.0 (Windows NT 10.0; Win64; x64) AppleWebKit/537.36 (KHTML, like Gecko) draw.io/22.1.2 Chrome/114.0.5735.289 Electron/25.9.4 Safari/537.36" etag="5O-RJ367ggnSy6Smzl5W" version="22.1.2" type="device">
  <diagram name="Page-1" id="kL894uiJR2UCs9CUbeo-">
    <mxGraphModel dx="862" dy="510" grid="1" gridSize="10" guides="1" tooltips="1" connect="1" arrows="1" fold="1" page="1" pageScale="1" pageWidth="850" pageHeight="1100" math="0" shadow="0">
      <root>
        <mxCell id="0" />
        <mxCell id="1" parent="0" />
        <mxCell id="yfw4t7Uaq2MJGn-rD0gL-2" value="" style="shape=umlLifeline;perimeter=lifelinePerimeter;whiteSpace=wrap;html=1;container=1;dropTarget=0;collapsible=0;recursiveResize=0;outlineConnect=0;portConstraint=eastwest;newEdgeStyle={&quot;curved&quot;:0,&quot;rounded&quot;:0};participant=umlActor;" parent="1" vertex="1">
          <mxGeometry x="45" y="220" width="20" height="670" as="geometry" />
        </mxCell>
        <mxCell id="yfw4t7Uaq2MJGn-rD0gL-3" value="" style="html=1;points=[[0,0,0,0,5],[0,1,0,0,-5],[1,0,0,0,5],[1,1,0,0,-5]];perimeter=orthogonalPerimeter;outlineConnect=0;targetShapes=umlLifeline;portConstraint=eastwest;newEdgeStyle={&quot;curved&quot;:0,&quot;rounded&quot;:0};" parent="yfw4t7Uaq2MJGn-rD0gL-2" vertex="1">
          <mxGeometry x="5" y="60" width="10" height="210" as="geometry" />
        </mxCell>
        <mxCell id="yfw4t7Uaq2MJGn-rD0gL-13" value="" style="html=1;points=[[0,0,0,0,5],[0,1,0,0,-5],[1,0,0,0,5],[1,1,0,0,-5]];perimeter=orthogonalPerimeter;outlineConnect=0;targetShapes=umlLifeline;portConstraint=eastwest;newEdgeStyle={&quot;curved&quot;:0,&quot;rounded&quot;:0};" parent="yfw4t7Uaq2MJGn-rD0gL-2" vertex="1">
          <mxGeometry x="5" y="450" width="10" height="60" as="geometry" />
        </mxCell>
        <mxCell id="yfw4t7Uaq2MJGn-rD0gL-11" value="" style="html=1;points=[[0,0,0,0,5],[0,1,0,0,-5],[1,0,0,0,5],[1,1,0,0,-5]];perimeter=orthogonalPerimeter;outlineConnect=0;targetShapes=umlLifeline;portConstraint=eastwest;newEdgeStyle={&quot;curved&quot;:0,&quot;rounded&quot;:0};" parent="yfw4t7Uaq2MJGn-rD0gL-2" vertex="1">
          <mxGeometry x="5" y="300" width="10" height="30" as="geometry" />
        </mxCell>
        <mxCell id="yfw4t7Uaq2MJGn-rD0gL-12" value="" style="html=1;points=[[0,0,0,0,5],[0,1,0,0,-5],[1,0,0,0,5],[1,1,0,0,-5]];perimeter=orthogonalPerimeter;outlineConnect=0;targetShapes=umlLifeline;portConstraint=eastwest;newEdgeStyle={&quot;curved&quot;:0,&quot;rounded&quot;:0};" parent="yfw4t7Uaq2MJGn-rD0gL-2" vertex="1">
          <mxGeometry x="5" y="400" width="10" height="30" as="geometry" />
        </mxCell>
        <mxCell id="yfw4t7Uaq2MJGn-rD0gL-49" value="" style="html=1;points=[[0,0,0,0,5],[0,1,0,0,-5],[1,0,0,0,5],[1,1,0,0,-5]];perimeter=orthogonalPerimeter;outlineConnect=0;targetShapes=umlLifeline;portConstraint=eastwest;newEdgeStyle={&quot;curved&quot;:0,&quot;rounded&quot;:0};" parent="yfw4t7Uaq2MJGn-rD0gL-2" vertex="1">
          <mxGeometry x="5" y="590" width="10" height="40" as="geometry" />
        </mxCell>
        <mxCell id="yfw4t7Uaq2MJGn-rD0gL-4" value="pengguna" style="text;html=1;align=center;verticalAlign=middle;resizable=0;points=[];autosize=1;strokeColor=none;fillColor=none;" parent="1" vertex="1">
          <mxGeometry x="15" y="190" width="80" height="30" as="geometry" />
        </mxCell>
        <mxCell id="yfw4t7Uaq2MJGn-rD0gL-5" value="lupa password form" style="shape=umlLifeline;perimeter=lifelinePerimeter;whiteSpace=wrap;html=1;container=1;dropTarget=0;collapsible=0;recursiveResize=0;outlineConnect=0;portConstraint=eastwest;newEdgeStyle={&quot;curved&quot;:0,&quot;rounded&quot;:0};" parent="1" vertex="1">
          <mxGeometry x="145" y="220" width="100" height="670" as="geometry" />
        </mxCell>
        <mxCell id="yfw4t7Uaq2MJGn-rD0gL-6" value="" style="html=1;points=[[0,0,0,0,5],[0,1,0,0,-5],[1,0,0,0,5],[1,1,0,0,-5]];perimeter=orthogonalPerimeter;outlineConnect=0;targetShapes=umlLifeline;portConstraint=eastwest;newEdgeStyle={&quot;curved&quot;:0,&quot;rounded&quot;:0};" parent="yfw4t7Uaq2MJGn-rD0gL-5" vertex="1">
          <mxGeometry x="45" y="90" width="10" height="30" as="geometry" />
        </mxCell>
        <mxCell id="yfw4t7Uaq2MJGn-rD0gL-7" value="" style="html=1;points=[[0,0,0,0,5],[0,1,0,0,-5],[1,0,0,0,5],[1,1,0,0,-5]];perimeter=orthogonalPerimeter;outlineConnect=0;targetShapes=umlLifeline;portConstraint=eastwest;newEdgeStyle={&quot;curved&quot;:0,&quot;rounded&quot;:0};" parent="yfw4t7Uaq2MJGn-rD0gL-5" vertex="1">
          <mxGeometry x="45" y="170" width="10" height="40" as="geometry" />
        </mxCell>
        <mxCell id="yfw4t7Uaq2MJGn-rD0gL-8" value="" style="html=1;points=[[0,0,0,0,5],[0,1,0,0,-5],[1,0,0,0,5],[1,1,0,0,-5]];perimeter=orthogonalPerimeter;outlineConnect=0;targetShapes=umlLifeline;portConstraint=eastwest;newEdgeStyle={&quot;curved&quot;:0,&quot;rounded&quot;:0};" parent="yfw4t7Uaq2MJGn-rD0gL-5" vertex="1">
          <mxGeometry x="45" y="220" width="10" height="40" as="geometry" />
        </mxCell>
        <mxCell id="yfw4t7Uaq2MJGn-rD0gL-14" value="" style="html=1;points=[[0,0,0,0,5],[0,1,0,0,-5],[1,0,0,0,5],[1,1,0,0,-5]];perimeter=orthogonalPerimeter;outlineConnect=0;targetShapes=umlLifeline;portConstraint=eastwest;newEdgeStyle={&quot;curved&quot;:0,&quot;rounded&quot;:0};" parent="yfw4t7Uaq2MJGn-rD0gL-5" vertex="1">
          <mxGeometry x="45" y="370" width="10" height="40" as="geometry" />
        </mxCell>
        <mxCell id="yfw4t7Uaq2MJGn-rD0gL-9" value="backend" style="shape=umlLifeline;perimeter=lifelinePerimeter;whiteSpace=wrap;html=1;container=1;dropTarget=0;collapsible=0;recursiveResize=0;outlineConnect=0;portConstraint=eastwest;newEdgeStyle={&quot;curved&quot;:0,&quot;rounded&quot;:0};" parent="1" vertex="1">
          <mxGeometry x="290" y="220" width="100" height="670" as="geometry" />
        </mxCell>
        <mxCell id="yfw4t7Uaq2MJGn-rD0gL-10" value="" style="html=1;points=[[0,0,0,0,5],[0,1,0,0,-5],[1,0,0,0,5],[1,1,0,0,-5]];perimeter=orthogonalPerimeter;outlineConnect=0;targetShapes=umlLifeline;portConstraint=eastwest;newEdgeStyle={&quot;curved&quot;:0,&quot;rounded&quot;:0};" parent="yfw4t7Uaq2MJGn-rD0gL-9" vertex="1">
          <mxGeometry x="45" y="110" width="10" height="140" as="geometry" />
        </mxCell>
        <mxCell id="yfw4t7Uaq2MJGn-rD0gL-16" value="" style="html=1;points=[[0,0,0,0,5],[0,1,0,0,-5],[1,0,0,0,5],[1,1,0,0,-5]];perimeter=orthogonalPerimeter;outlineConnect=0;targetShapes=umlLifeline;portConstraint=eastwest;newEdgeStyle={&quot;curved&quot;:0,&quot;rounded&quot;:0};" parent="yfw4t7Uaq2MJGn-rD0gL-9" vertex="1">
          <mxGeometry x="45" y="320" width="10" height="100" as="geometry" />
        </mxCell>
        <mxCell id="yfw4t7Uaq2MJGn-rD0gL-45" value="" style="html=1;points=[[0,0,0,0,5],[0,1,0,0,-5],[1,0,0,0,5],[1,1,0,0,-5]];perimeter=orthogonalPerimeter;outlineConnect=0;targetShapes=umlLifeline;portConstraint=eastwest;newEdgeStyle={&quot;curved&quot;:0,&quot;rounded&quot;:0};" parent="yfw4t7Uaq2MJGn-rD0gL-9" vertex="1">
          <mxGeometry x="45" y="500" width="10" height="60" as="geometry" />
        </mxCell>
        <mxCell id="yfw4t7Uaq2MJGn-rD0gL-25" style="edgeStyle=orthogonalEdgeStyle;rounded=0;orthogonalLoop=1;jettySize=auto;html=1;curved=0;exitX=1;exitY=1;exitDx=0;exitDy=-5;exitPerimeter=0;entryX=0;entryY=0;entryDx=0;entryDy=5;entryPerimeter=0;" parent="1" source="yfw4t7Uaq2MJGn-rD0gL-6" target="yfw4t7Uaq2MJGn-rD0gL-10" edge="1">
          <mxGeometry relative="1" as="geometry" />
        </mxCell>
        <mxCell id="yfw4t7Uaq2MJGn-rD0gL-26" value="2. kirim data" style="edgeLabel;html=1;align=center;verticalAlign=middle;resizable=0;points=[];" parent="yfw4t7Uaq2MJGn-rD0gL-25" vertex="1" connectable="0">
          <mxGeometry x="-0.2242" y="1" relative="1" as="geometry">
            <mxPoint as="offset" />
          </mxGeometry>
        </mxCell>
        <mxCell id="yfw4t7Uaq2MJGn-rD0gL-27" value="email" style="shape=umlLifeline;perimeter=lifelinePerimeter;whiteSpace=wrap;html=1;container=1;dropTarget=0;collapsible=0;recursiveResize=0;outlineConnect=0;portConstraint=eastwest;newEdgeStyle={&quot;curved&quot;:0,&quot;rounded&quot;:0};" parent="1" vertex="1">
          <mxGeometry x="540" y="220" width="100" height="670" as="geometry" />
        </mxCell>
        <mxCell id="yfw4t7Uaq2MJGn-rD0gL-28" value="" style="html=1;points=[[0,0,0,0,5],[0,1,0,0,-5],[1,0,0,0,5],[1,1,0,0,-5]];perimeter=orthogonalPerimeter;outlineConnect=0;targetShapes=umlLifeline;portConstraint=eastwest;newEdgeStyle={&quot;curved&quot;:0,&quot;rounded&quot;:0};" parent="yfw4t7Uaq2MJGn-rD0gL-27" vertex="1">
          <mxGeometry x="45" y="210" width="10" height="100" as="geometry" />
        </mxCell>
        <mxCell id="yfw4t7Uaq2MJGn-rD0gL-31" value="" style="endArrow=classic;html=1;rounded=0;entryX=0;entryY=0;entryDx=0;entryDy=5;entryPerimeter=0;" parent="1" source="yfw4t7Uaq2MJGn-rD0gL-3" target="yfw4t7Uaq2MJGn-rD0gL-6" edge="1">
          <mxGeometry width="50" height="50" relative="1" as="geometry">
            <mxPoint x="165" y="330" as="sourcePoint" />
            <mxPoint x="215" y="280" as="targetPoint" />
          </mxGeometry>
        </mxCell>
        <mxCell id="yfw4t7Uaq2MJGn-rD0gL-32" value="1. mengisi data" style="edgeLabel;html=1;align=center;verticalAlign=middle;resizable=0;points=[];" parent="yfw4t7Uaq2MJGn-rD0gL-31" vertex="1" connectable="0">
          <mxGeometry x="-0.1798" y="-1" relative="1" as="geometry">
            <mxPoint as="offset" />
          </mxGeometry>
        </mxCell>
        <mxCell id="yfw4t7Uaq2MJGn-rD0gL-33" value="5. response data" style="html=1;verticalAlign=bottom;endArrow=open;dashed=1;endSize=8;curved=0;rounded=0;" parent="1" source="yfw4t7Uaq2MJGn-rD0gL-10" target="yfw4t7Uaq2MJGn-rD0gL-7" edge="1">
          <mxGeometry relative="1" as="geometry">
            <mxPoint x="305" y="360" as="sourcePoint" />
            <mxPoint x="195" y="402" as="targetPoint" />
          </mxGeometry>
        </mxCell>
        <mxCell id="yfw4t7Uaq2MJGn-rD0gL-34" value="6. gagal reset" style="html=1;verticalAlign=bottom;endArrow=open;dashed=1;endSize=8;curved=0;rounded=0;" parent="1" source="yfw4t7Uaq2MJGn-rD0gL-7" target="yfw4t7Uaq2MJGn-rD0gL-3" edge="1">
          <mxGeometry relative="1" as="geometry">
            <mxPoint x="135" y="420" as="sourcePoint" />
            <mxPoint x="65" y="410" as="targetPoint" />
          </mxGeometry>
        </mxCell>
        <mxCell id="yfw4t7Uaq2MJGn-rD0gL-35" value="7. link diterima user melalui email" style="html=1;verticalAlign=bottom;endArrow=open;dashed=1;endSize=8;curved=0;rounded=0;entryX=1;entryY=0;entryDx=0;entryDy=5;entryPerimeter=0;exitX=0;exitY=1;exitDx=0;exitDy=-5;exitPerimeter=0;" parent="1" source="yfw4t7Uaq2MJGn-rD0gL-28" target="yfw4t7Uaq2MJGn-rD0gL-11" edge="1">
          <mxGeometry relative="1" as="geometry">
            <mxPoint x="455" y="447.22222222222223" as="sourcePoint" />
            <mxPoint x="75" y="480" as="targetPoint" />
          </mxGeometry>
        </mxCell>
        <mxCell id="yfw4t7Uaq2MJGn-rD0gL-36" value="8. response data" style="html=1;verticalAlign=bottom;endArrow=open;dashed=1;endSize=8;curved=0;rounded=0;" parent="1" edge="1">
          <mxGeometry relative="1" as="geometry">
            <mxPoint x="330" y="460" as="sourcePoint" />
            <mxPoint x="200" y="460" as="targetPoint" />
          </mxGeometry>
        </mxCell>
        <mxCell id="yfw4t7Uaq2MJGn-rD0gL-37" value="9. berhasil" style="html=1;verticalAlign=bottom;endArrow=open;dashed=1;endSize=8;curved=0;rounded=0;exitX=0;exitY=1;exitDx=0;exitDy=-5;exitPerimeter=0;" parent="1" source="yfw4t7Uaq2MJGn-rD0gL-8" target="yfw4t7Uaq2MJGn-rD0gL-3" edge="1">
          <mxGeometry relative="1" as="geometry">
            <mxPoint x="375" y="465" as="sourcePoint" />
            <mxPoint x="210" y="465" as="targetPoint" />
          </mxGeometry>
        </mxCell>
        <mxCell id="yfw4t7Uaq2MJGn-rD0gL-38" value="ubah password form" style="shape=umlLifeline;perimeter=lifelinePerimeter;whiteSpace=wrap;html=1;container=1;dropTarget=0;collapsible=0;recursiveResize=0;outlineConnect=0;portConstraint=eastwest;newEdgeStyle={&quot;curved&quot;:0,&quot;rounded&quot;:0};" parent="1" vertex="1">
          <mxGeometry x="670" y="220" width="100" height="670" as="geometry" />
        </mxCell>
        <mxCell id="yfw4t7Uaq2MJGn-rD0gL-39" value="" style="html=1;points=[[0,0,0,0,5],[0,1,0,0,-5],[1,0,0,0,5],[1,1,0,0,-5]];perimeter=orthogonalPerimeter;outlineConnect=0;targetShapes=umlLifeline;portConstraint=eastwest;newEdgeStyle={&quot;curved&quot;:0,&quot;rounded&quot;:0};" parent="yfw4t7Uaq2MJGn-rD0gL-38" vertex="1">
          <mxGeometry x="45" y="410" width="10" height="50" as="geometry" />
        </mxCell>
        <mxCell id="yfw4t7Uaq2MJGn-rD0gL-43" value="" style="html=1;verticalAlign=bottom;endArrow=open;dashed=1;endSize=8;curved=0;rounded=0;entryX=1;entryY=0;entryDx=0;entryDy=5;entryPerimeter=0;exitX=0;exitY=1;exitDx=0;exitDy=-5;exitPerimeter=0;" parent="1" source="yfw4t7Uaq2MJGn-rD0gL-39" target="yfw4t7Uaq2MJGn-rD0gL-13" edge="1">
          <mxGeometry relative="1" as="geometry">
            <mxPoint x="375" y="670" as="sourcePoint" />
            <mxPoint x="210" y="670" as="targetPoint" />
          </mxGeometry>
        </mxCell>
        <mxCell id="yfw4t7Uaq2MJGn-rD0gL-69" value="12. render lupa password form" style="edgeLabel;html=1;align=center;verticalAlign=middle;resizable=0;points=[];" parent="yfw4t7Uaq2MJGn-rD0gL-43" vertex="1" connectable="0">
          <mxGeometry x="0.1874" relative="1" as="geometry">
            <mxPoint as="offset" />
          </mxGeometry>
        </mxCell>
        <mxCell id="yfw4t7Uaq2MJGn-rD0gL-46" style="edgeStyle=orthogonalEdgeStyle;rounded=0;orthogonalLoop=1;jettySize=auto;html=1;curved=0;exitX=1;exitY=1;exitDx=0;exitDy=-5;exitPerimeter=0;entryX=0;entryY=0;entryDx=0;entryDy=5;entryPerimeter=0;" parent="1" source="yfw4t7Uaq2MJGn-rD0gL-13" target="yfw4t7Uaq2MJGn-rD0gL-45" edge="1">
          <mxGeometry relative="1" as="geometry" />
        </mxCell>
        <mxCell id="yfw4t7Uaq2MJGn-rD0gL-47" value="13. input password" style="edgeLabel;html=1;align=center;verticalAlign=middle;resizable=0;points=[];" parent="yfw4t7Uaq2MJGn-rD0gL-46" vertex="1" connectable="0">
          <mxGeometry x="-0.0807" y="1" relative="1" as="geometry">
            <mxPoint as="offset" />
          </mxGeometry>
        </mxCell>
        <mxCell id="yfw4t7Uaq2MJGn-rD0gL-50" value="" style="html=1;verticalAlign=bottom;endArrow=open;dashed=1;endSize=8;curved=0;rounded=0;entryX=1;entryY=0;entryDx=0;entryDy=5;entryPerimeter=0;exitX=0;exitY=1;exitDx=0;exitDy=-5;exitPerimeter=0;" parent="1" source="yfw4t7Uaq2MJGn-rD0gL-67" target="yfw4t7Uaq2MJGn-rD0gL-49" edge="1">
          <mxGeometry relative="1" as="geometry">
            <mxPoint x="640" y="675" as="sourcePoint" />
            <mxPoint x="70" y="675" as="targetPoint" />
          </mxGeometry>
        </mxCell>
        <mxCell id="yfw4t7Uaq2MJGn-rD0gL-71" value="16. halaman login" style="edgeLabel;html=1;align=center;verticalAlign=middle;resizable=0;points=[];" parent="yfw4t7Uaq2MJGn-rD0gL-50" vertex="1" connectable="0">
          <mxGeometry x="0.5078" relative="1" as="geometry">
            <mxPoint as="offset" />
          </mxGeometry>
        </mxCell>
        <mxCell id="yfw4t7Uaq2MJGn-rD0gL-20" value="12. gagal invalid link" style="html=1;verticalAlign=bottom;endArrow=open;dashed=1;endSize=8;curved=0;rounded=0;entryX=1;entryY=0;entryDx=0;entryDy=5;entryPerimeter=0;exitX=0;exitY=1;exitDx=0;exitDy=-5;exitPerimeter=0;" parent="1" source="yfw4t7Uaq2MJGn-rD0gL-14" target="yfw4t7Uaq2MJGn-rD0gL-12" edge="1">
          <mxGeometry relative="1" as="geometry">
            <mxPoint x="125" y="630" as="sourcePoint" />
            <mxPoint x="230" y="605" as="targetPoint" />
          </mxGeometry>
        </mxCell>
        <mxCell id="yfw4t7Uaq2MJGn-rD0gL-17" value="11.1 invalid link" style="html=1;verticalAlign=bottom;endArrow=open;dashed=1;endSize=8;curved=0;rounded=0;entryX=1;entryY=0;entryDx=0;entryDy=5;entryPerimeter=0;" parent="1" source="yfw4t7Uaq2MJGn-rD0gL-16" target="yfw4t7Uaq2MJGn-rD0gL-14" edge="1">
          <mxGeometry relative="1" as="geometry">
            <mxPoint x="285" y="580" as="sourcePoint" />
            <mxPoint x="225" y="580" as="targetPoint" />
          </mxGeometry>
        </mxCell>
        <mxCell id="yfw4t7Uaq2MJGn-rD0gL-55" value="" style="endArrow=classic;html=1;rounded=0;exitX=1.5;exitY=0.857;exitDx=0;exitDy=0;exitPerimeter=0;" parent="1" edge="1" source="yfw4t7Uaq2MJGn-rD0gL-10">
          <mxGeometry width="50" height="50" relative="1" as="geometry">
            <mxPoint x="350" y="450" as="sourcePoint" />
            <mxPoint x="580" y="450" as="targetPoint" />
          </mxGeometry>
        </mxCell>
        <mxCell id="yfw4t7Uaq2MJGn-rD0gL-56" value="6. valid-krim-link-reset" style="edgeLabel;html=1;align=center;verticalAlign=middle;resizable=0;points=[];" parent="yfw4t7Uaq2MJGn-rD0gL-55" vertex="1" connectable="0">
          <mxGeometry x="-0.4731" y="-1" relative="1" as="geometry">
            <mxPoint x="27" y="-1" as="offset" />
          </mxGeometry>
        </mxCell>
        <mxCell id="yfw4t7Uaq2MJGn-rD0gL-60" value="" style="endArrow=classic;html=1;rounded=0;entryX=0;entryY=0;entryDx=0;entryDy=5;entryPerimeter=0;exitX=1;exitY=1;exitDx=0;exitDy=-5;exitPerimeter=0;" parent="1" source="yfw4t7Uaq2MJGn-rD0gL-11" target="yfw4t7Uaq2MJGn-rD0gL-16" edge="1">
          <mxGeometry width="50" height="50" relative="1" as="geometry">
            <mxPoint x="300" y="490" as="sourcePoint" />
            <mxPoint x="350" y="440" as="targetPoint" />
          </mxGeometry>
        </mxCell>
        <mxCell id="yfw4t7Uaq2MJGn-rD0gL-61" value="10. validasi link" style="edgeLabel;html=1;align=center;verticalAlign=middle;resizable=0;points=[];" parent="yfw4t7Uaq2MJGn-rD0gL-60" vertex="1" connectable="0">
          <mxGeometry x="0.1359" y="-2" relative="1" as="geometry">
            <mxPoint as="offset" />
          </mxGeometry>
        </mxCell>
        <mxCell id="yfw4t7Uaq2MJGn-rD0gL-64" style="edgeStyle=orthogonalEdgeStyle;rounded=0;orthogonalLoop=1;jettySize=auto;html=1;curved=0;exitX=1;exitY=1;exitDx=0;exitDy=-5;exitPerimeter=0;entryX=0;entryY=0;entryDx=0;entryDy=5;entryPerimeter=0;" parent="1" source="yfw4t7Uaq2MJGn-rD0gL-16" target="yfw4t7Uaq2MJGn-rD0gL-39" edge="1">
          <mxGeometry relative="1" as="geometry" />
        </mxCell>
        <mxCell id="yfw4t7Uaq2MJGn-rD0gL-65" value="11.2 valid link" style="edgeLabel;html=1;align=center;verticalAlign=middle;resizable=0;points=[];" parent="yfw4t7Uaq2MJGn-rD0gL-64" vertex="1" connectable="0">
          <mxGeometry x="-0.0939" relative="1" as="geometry">
            <mxPoint as="offset" />
          </mxGeometry>
        </mxCell>
        <mxCell id="yfw4t7Uaq2MJGn-rD0gL-66" value="login form" style="shape=umlLifeline;perimeter=lifelinePerimeter;whiteSpace=wrap;html=1;container=1;dropTarget=0;collapsible=0;recursiveResize=0;outlineConnect=0;portConstraint=eastwest;newEdgeStyle={&quot;curved&quot;:0,&quot;rounded&quot;:0};" parent="1" vertex="1">
          <mxGeometry x="790" y="220" width="100" height="670" as="geometry" />
        </mxCell>
        <mxCell id="yfw4t7Uaq2MJGn-rD0gL-67" value="" style="html=1;points=[[0,0,0,0,5],[0,1,0,0,-5],[1,0,0,0,5],[1,1,0,0,-5]];perimeter=orthogonalPerimeter;outlineConnect=0;targetShapes=umlLifeline;portConstraint=eastwest;newEdgeStyle={&quot;curved&quot;:0,&quot;rounded&quot;:0};" parent="yfw4t7Uaq2MJGn-rD0gL-66" vertex="1">
          <mxGeometry x="50" y="550" width="10" height="50" as="geometry" />
        </mxCell>
        <mxCell id="yfw4t7Uaq2MJGn-rD0gL-68" style="edgeStyle=orthogonalEdgeStyle;rounded=0;orthogonalLoop=1;jettySize=auto;html=1;curved=0;exitX=1;exitY=1;exitDx=0;exitDy=-5;exitPerimeter=0;entryX=0;entryY=0;entryDx=0;entryDy=5;entryPerimeter=0;" parent="1" source="yfw4t7Uaq2MJGn-rD0gL-45" target="yfw4t7Uaq2MJGn-rD0gL-67" edge="1">
          <mxGeometry relative="1" as="geometry" />
        </mxCell>
        <mxCell id="yfw4t7Uaq2MJGn-rD0gL-70" value="15. redirect login" style="edgeLabel;html=1;align=center;verticalAlign=middle;resizable=0;points=[];" parent="yfw4t7Uaq2MJGn-rD0gL-68" vertex="1" connectable="0">
          <mxGeometry x="-0.3114" y="-2" relative="1" as="geometry">
            <mxPoint as="offset" />
          </mxGeometry>
        </mxCell>
        <mxCell id="UiNABmgi9OaR_As4XOH7-1" value="database" style="shape=umlLifeline;perimeter=lifelinePerimeter;whiteSpace=wrap;html=1;container=1;dropTarget=0;collapsible=0;recursiveResize=0;outlineConnect=0;portConstraint=eastwest;newEdgeStyle={&quot;curved&quot;:0,&quot;rounded&quot;:0};" vertex="1" parent="1">
          <mxGeometry x="410" y="220" width="100" height="670" as="geometry" />
        </mxCell>
        <mxCell id="UiNABmgi9OaR_As4XOH7-2" value="" style="html=1;points=[[0,0,0,0,5],[0,1,0,0,-5],[1,0,0,0,5],[1,1,0,0,-5]];perimeter=orthogonalPerimeter;outlineConnect=0;targetShapes=umlLifeline;portConstraint=eastwest;newEdgeStyle={&quot;curved&quot;:0,&quot;rounded&quot;:0};" vertex="1" parent="UiNABmgi9OaR_As4XOH7-1">
          <mxGeometry x="45" y="120" width="10" height="100" as="geometry" />
        </mxCell>
        <mxCell id="UiNABmgi9OaR_As4XOH7-7" value="" style="html=1;points=[[0,0,0,0,5],[0,1,0,0,-5],[1,0,0,0,5],[1,1,0,0,-5]];perimeter=orthogonalPerimeter;outlineConnect=0;targetShapes=umlLifeline;portConstraint=eastwest;newEdgeStyle={&quot;curved&quot;:0,&quot;rounded&quot;:0};" vertex="1" parent="UiNABmgi9OaR_As4XOH7-1">
          <mxGeometry x="45" y="510" width="10" height="30" as="geometry" />
        </mxCell>
        <mxCell id="UiNABmgi9OaR_As4XOH7-3" style="edgeStyle=orthogonalEdgeStyle;rounded=0;orthogonalLoop=1;jettySize=auto;html=1;curved=0;entryX=0;entryY=0;entryDx=0;entryDy=5;entryPerimeter=0;exitX=1;exitY=0;exitDx=0;exitDy=5;exitPerimeter=0;" edge="1" parent="1">
          <mxGeometry relative="1" as="geometry">
            <mxPoint x="345.0000000000001" y="350" as="sourcePoint" />
            <mxPoint x="455.0000000000001" y="350" as="targetPoint" />
          </mxGeometry>
        </mxCell>
        <mxCell id="UiNABmgi9OaR_As4XOH7-4" value="3. validasi data" style="edgeLabel;html=1;align=center;verticalAlign=middle;resizable=0;points=[];" vertex="1" connectable="0" parent="UiNABmgi9OaR_As4XOH7-3">
          <mxGeometry x="-0.2242" y="1" relative="1" as="geometry">
            <mxPoint as="offset" />
          </mxGeometry>
        </mxCell>
        <mxCell id="UiNABmgi9OaR_As4XOH7-5" value="4.2 valid" style="html=1;verticalAlign=bottom;endArrow=open;dashed=1;endSize=8;curved=0;rounded=0;" edge="1" parent="1">
          <mxGeometry relative="1" as="geometry">
            <mxPoint x="455" y="429.99999999999994" as="sourcePoint" />
            <mxPoint x="345" y="429.99999999999994" as="targetPoint" />
          </mxGeometry>
        </mxCell>
        <mxCell id="UiNABmgi9OaR_As4XOH7-6" value="4.1 invalid" style="html=1;verticalAlign=bottom;endArrow=open;dashed=1;endSize=8;curved=0;rounded=0;" edge="1" parent="1" source="UiNABmgi9OaR_As4XOH7-2" target="yfw4t7Uaq2MJGn-rD0gL-10">
          <mxGeometry relative="1" as="geometry">
            <mxPoint x="450" y="420" as="sourcePoint" />
            <mxPoint x="350" y="419.99999999999994" as="targetPoint" />
          </mxGeometry>
        </mxCell>
        <mxCell id="UiNABmgi9OaR_As4XOH7-10" value="" style="endArrow=classic;html=1;rounded=0;exitX=1;exitY=0;exitDx=0;exitDy=5;exitPerimeter=0;entryX=0;entryY=0;entryDx=0;entryDy=5;entryPerimeter=0;" edge="1" parent="1">
          <mxGeometry width="50" height="50" relative="1" as="geometry">
            <mxPoint x="345.0000000000001" y="740" as="sourcePoint" />
            <mxPoint x="455.0000000000001" y="740" as="targetPoint" />
          </mxGeometry>
        </mxCell>
        <mxCell id="UiNABmgi9OaR_As4XOH7-11" value="14. update&lt;br&gt;&amp;nbsp;password" style="edgeLabel;html=1;align=center;verticalAlign=middle;resizable=0;points=[];" vertex="1" connectable="0" parent="UiNABmgi9OaR_As4XOH7-10">
          <mxGeometry x="-0.0727" relative="1" as="geometry">
            <mxPoint as="offset" />
          </mxGeometry>
        </mxCell>
      </root>
    </mxGraphModel>
  </diagram>
</mxfile>
